<svg width="49" height="22" viewBox="0 0 49 22" fill="none" xmlns="http://www.w3.org/2000/svg">
<path d="M27.0742 6.03125V16.4492H26.1719V11.0586H24.6719V15.9102H23.8047V6.26562H24.6719V10.2734H26.1719V6.03125H27.0742ZM19.6211 7.30859V12.9336C20.6582 12.9219 21.7598 12.8516 23.0312 12.5938L23.1484 13.4141C21.6953 13.6719 20.5 13.7539 19.3516 13.7539H18.707V7.30859H19.6211ZM31.6644 6.54688C33.223 6.53516 34.3363 7.39062 34.3363 8.66797C34.3363 9.93359 33.223 10.8125 31.6644 10.8008C30.1058 10.8125 28.9925 9.93359 28.9925 8.66797C28.9925 7.39062 30.1058 6.53516 31.6644 6.54688ZM31.6644 7.29688C30.6214 7.28516 29.8831 7.85938 29.8948 8.66797C29.8831 9.48828 30.6214 10.0508 31.6644 10.0391C32.7191 10.0508 33.4573 9.48828 33.4573 8.66797C33.4573 7.85938 32.7191 7.28516 31.6644 7.29688ZM36.8206 6.04297V16.4609H35.9183V6.04297H36.8206ZM28.2073 11.6914C30.1644 11.6914 32.8363 11.6562 35.1566 11.3164L35.2152 12.0078C34.2191 12.1895 33.182 12.3008 32.18 12.3594V16.1328H31.2659V12.418C30.2054 12.4648 29.2034 12.4707 28.3363 12.4766L28.2073 11.6914ZM46.8717 6.03125V16.4492H45.9459V6.03125H46.8717ZM42.1256 9.42969C42.1256 11.1758 43.3444 12.8633 44.9147 13.5312L44.3991 14.2461C43.1979 13.7129 42.1784 12.582 41.692 11.1992C41.2233 12.6641 40.2096 13.8652 39.0084 14.4336L38.4928 13.7188C40.0397 13.0156 41.2233 11.2578 41.2233 9.42969V8.59766H38.7741V7.84766H41.2116V6.23047H42.1256V7.84766H44.5514V8.59766H42.1256V9.42969Z" fill="#FFB2B2"/>
<path d="M4.42448 7.76364V16.3859M8.09115 5.5V14.2087M0.757812 9.0519C0.757812 8.135 0.757812 7.67717 0.997979 7.40969C1.08298 7.31454 1.18638 7.23829 1.3017 7.18575C1.62681 7.03895 2.05398 7.18389 2.90831 7.47376C3.56037 7.69521 3.88609 7.80593 4.21609 7.79412C4.33715 7.79007 4.45751 7.77381 4.57542 7.7456C4.89626 7.66784 5.18226 7.47376 5.75426 7.08622L6.59881 6.5127C7.33215 6.01506 7.6982 5.76624 8.11865 5.70963C8.53909 5.65178 8.95709 5.79361 9.79248 6.07726L10.5044 6.31862C11.1094 6.52389 11.4119 6.62653 11.5849 6.871C11.7578 7.11546 11.7578 7.44079 11.7578 8.08897V13.1456C11.7578 14.0619 11.7578 14.5203 11.5176 14.7878C11.4325 14.8825 11.3291 14.9583 11.2139 15.0105C10.8888 15.1579 10.4616 15.013 9.60731 14.7231C8.95526 14.5017 8.62953 14.3909 8.29953 14.4028C8.17848 14.4068 8.05811 14.4231 7.9402 14.4513C7.61937 14.529 7.33337 14.7231 6.76137 15.1107L5.91681 15.6842C5.18348 16.1818 4.81742 16.4306 4.39698 16.4872C3.97653 16.5451 3.55853 16.4033 2.72315 16.1196L2.0112 15.8783C1.4062 15.673 1.1037 15.5703 0.930757 15.3259C0.757812 15.0814 0.757812 14.7561 0.757812 14.1079V9.0519Z" stroke="#FFB2B2"/>
</svg>
