<svg width="100%" height="100%" viewBox="0 0 54 54" fill="none" xmlns="http://www.w3.org/2000/svg">
<rect width="100%" height="100%" rx="10" fill="#F85C5C"/>
<path d="M21.8757 36.1094V40.5527H21.1139V36.1094H21.8757ZM14.8542 40.0938C17.0319 39.6104 18.3014 38.5703 18.4382 37.1738H15.2936V36.5391H19.278C19.2731 38.7559 17.7057 40.1377 15.1374 40.7383L14.8542 40.0938ZM16.2311 41.5781V40.9629H21.8757V43.0625H17.0124V44.0977H22.1882V44.7129H16.2507V42.4766H21.1139V41.5781H16.2311ZM25.9893 37.9258C25.9941 38.9658 26.8633 39.918 28.1475 40.2988L27.7861 40.8848C26.7852 40.582 26.0088 39.9375 25.623 39.1123C25.2471 40.0205 24.4414 40.7236 23.4111 41.0605L23.0303 40.4551C24.3242 40.0645 25.2324 39.0684 25.2373 37.9258V37.7598H23.2744V37.125H25.2373V36.0703H26.0088V37.125H27.9521V37.7598H25.9893V37.9258ZM23.9092 44.166C25.3057 43.9414 26.5752 43.1797 26.7021 42.252H24.251V41.627H29.9736V42.252H27.5127C27.6348 43.1602 28.9141 43.9414 30.3057 44.166L30.0225 44.7617C28.7529 44.5518 27.6006 43.9219 27.1025 43.0527C26.6094 43.917 25.4619 44.5371 24.2021 44.752L23.9092 44.166ZM29.0557 41.1582V36.1094H29.8174V38.2578H31.126V38.9023H29.8174V41.1582H29.0557ZM38.5306 36.1094V44.791H37.7591V36.1094H38.5306ZM31.4603 42.5352C33.8089 41.4219 35.0101 39.7568 35.181 37.6816H31.8607V37.0566H35.9622C35.9525 39.5518 34.7904 41.7637 31.8802 43.1602L31.4603 42.5352Z" fill="#FDFDFD"/>
<path d="M38.1173 14.4859L38.1629 14.5122H38.1651C39.0309 15.0538 39.0163 16.3312 38.1213 16.8479L31.6449 20.5868L31.6446 20.587C30.7392 21.1117 29.6026 20.4569 29.6026 19.4059V11.928C29.6026 10.8769 30.7354 10.2219 31.6449 10.747L38.1173 14.4859Z" fill="#FDFDFD" stroke="#FDFDFD" stroke-width="0.392746"/>
<path d="M31.0566 15.663H23.8811C21.0573 15.663 18.7676 17.9527 18.7676 20.7766V27.6535" stroke="#FDFDFD" stroke-width="3.92746" stroke-miterlimit="10" stroke-linecap="round"/>
</svg>
