<svg width="17" height="16" viewBox="0 0 17 16" fill="none" xmlns="http://www.w3.org/2000/svg">
<circle cx="8.75781" cy="8" r="8" fill="#FFE8E8"/>
<g style="mix-blend-mode:multiply">
<path d="M11.8467 10.3108L11.8467 10.3108L9.53549 8L11.8467 5.68918L11.8467 5.68916C11.9498 5.58599 12.0078 5.44606 12.0078 5.30015C12.0078 5.15424 11.9498 5.01431 11.8467 4.91114L11.6703 5.08753L11.8467 4.91113C11.7435 4.80796 11.6036 4.75 11.4577 4.75C11.3118 4.75 11.1718 4.80796 11.0686 4.91113L11.0686 4.91115L8.75781 7.22232L6.44699 4.91115L6.44698 4.91114C6.3438 4.80796 6.20387 4.75 6.05796 4.75C5.91205 4.75 5.77212 4.80796 5.66895 4.91114C5.56577 5.01431 5.50781 5.15424 5.50781 5.30015C5.50781 5.44606 5.56577 5.58599 5.66895 5.68916L5.66896 5.68918L7.98013 8L5.66896 10.3108L5.66895 10.3108C5.56577 10.414 5.50781 10.5539 5.50781 10.6998C5.50781 10.8458 5.56577 10.9857 5.66895 11.0889L5.84572 10.9121L5.66895 11.0889C5.77212 11.192 5.91205 11.25 6.05796 11.25C6.20387 11.25 6.3438 11.192 6.44698 11.0889L6.44699 11.0889L8.75781 8.77768L11.0686 11.0889L11.0686 11.0889C11.1197 11.14 11.1804 11.1805 11.2471 11.2081C11.3139 11.2358 11.3854 11.25 11.4577 11.25C11.5299 11.25 11.6015 11.2358 11.6682 11.2081C11.7349 11.1805 11.7956 11.14 11.8467 11.0889L11.8467 11.0889C11.8978 11.0378 11.9383 10.9771 11.9659 10.9104C11.9936 10.8436 12.0078 10.7721 12.0078 10.6998C12.0078 10.6276 11.9936 10.5561 11.9659 10.4893C11.9383 10.4226 11.8978 10.3619 11.8467 10.3108Z" fill="#B0B0B0"/>
<path d="M11.8467 10.3108L11.8467 10.3108L9.53549 8L11.8467 5.68918L11.8467 5.68916C11.9498 5.58599 12.0078 5.44606 12.0078 5.30015C12.0078 5.15424 11.9498 5.01431 11.8467 4.91114L11.6703 5.08753L11.8467 4.91113C11.7435 4.80796 11.6036 4.75 11.4577 4.75C11.3118 4.75 11.1718 4.80796 11.0686 4.91113L11.0686 4.91115L8.75781 7.22232L6.44699 4.91115L6.44698 4.91114C6.3438 4.80796 6.20387 4.75 6.05796 4.75C5.91205 4.75 5.77212 4.80796 5.66895 4.91114C5.56577 5.01431 5.50781 5.15424 5.50781 5.30015C5.50781 5.44606 5.56577 5.58599 5.66895 5.68916L5.66896 5.68918L7.98013 8L5.66896 10.3108L5.66895 10.3108C5.56577 10.414 5.50781 10.5539 5.50781 10.6998C5.50781 10.8458 5.56577 10.9857 5.66895 11.0889L5.84572 10.9121L5.66895 11.0889C5.77212 11.192 5.91205 11.25 6.05796 11.25C6.20387 11.25 6.3438 11.192 6.44698 11.0889L6.44699 11.0889L8.75781 8.77768L11.0686 11.0889L11.0686 11.0889C11.1197 11.14 11.1804 11.1805 11.2471 11.2081C11.3139 11.2358 11.3854 11.25 11.4577 11.25C11.5299 11.25 11.6015 11.2358 11.6682 11.2081C11.7349 11.1805 11.7956 11.14 11.8467 11.0889L11.8467 11.0889C11.8978 11.0378 11.9383 10.9771 11.9659 10.9104C11.9936 10.8436 12.0078 10.7721 12.0078 10.6998C12.0078 10.6276 11.9936 10.5561 11.9659 10.4893C11.9383 10.4226 11.8978 10.3619 11.8467 10.3108Z" stroke="#B0B0B0" stroke-width="0.5"/>
</g>
</svg>
