<svg width="82" height="22" viewBox="0 0 82 22" fill="none" xmlns="http://www.w3.org/2000/svg">
<path d="M21.9062 9.23047C21.9062 11 23.1953 12.793 24.7305 13.4609L24.2148 14.1875C22.9961 13.6309 21.9414 12.4297 21.4609 10.9883C20.9688 12.5176 19.9199 13.8477 18.7305 14.4453L18.1797 13.7188C19.668 13.0039 20.9688 11.0352 20.9805 9.23047V7.87109H18.5195V7.10938H24.3906V7.87109H21.9062V9.23047ZM26.7695 6.03125V16.4492H25.8438V6.03125H26.7695ZM36.6448 10.918V11.668H33.4222V14.3633H37.7698V15.1367H28.2308V14.3633H32.5198V11.668H29.4495V6.88672H36.5394V7.63672H30.3753V10.918H36.6448ZM47.2116 6.03125V16.4492H46.3209V6.03125H47.2116ZM45.1139 6.25391V15.9219H44.235V10.8594H42.8991C42.7995 12.8867 41.9381 14.1523 40.6491 14.1523C39.2897 14.1523 38.4108 12.7461 38.4108 10.5312C38.4108 8.31641 39.2897 6.91016 40.6491 6.91016C41.9147 6.91016 42.7702 8.13477 42.8873 10.0977H44.235V6.25391H45.1139ZM40.6491 7.77734C39.8053 7.77734 39.2663 8.83203 39.278 10.5312C39.2663 12.2188 39.8053 13.2852 40.6491 13.2734C41.4928 13.2852 42.0319 12.2188 42.0319 10.5312C42.0319 8.83203 41.4928 7.77734 40.6491 7.77734ZM52.0009 8.83203C52.0009 10.7188 53.208 12.6172 54.7197 13.3086L54.1689 14.0586C52.9853 13.4492 52.0068 12.2012 51.5439 10.7188C51.081 12.2773 50.1025 13.6133 48.9189 14.2461L48.3213 13.5078C49.8447 12.7578 51.0634 10.7539 51.0634 8.83203V6.93359H52.0009V8.83203ZM56.9697 6.03125V16.4727H56.0556V10.3438H53.583V9.59375H56.0556V6.03125H56.9697ZM64.6383 8C64.6383 9.45312 65.693 10.8242 67.2164 11.375L66.7008 12.0898C65.5582 11.6328 64.65 10.7246 64.2047 9.59375C63.7594 10.8535 62.8102 11.8555 61.5797 12.3477L61.0875 11.5977C62.6461 11.0234 63.7242 9.57031 63.7359 7.96484V6.67578H64.6383V8ZM69.7125 6.04297V13.8477H68.7867V9.26562H66.4664V8.49219H68.7867V6.04297H69.7125ZM69.9469 15.4531V16.2266H62.9742V12.957H63.9V15.4531H69.9469ZM75.6386 6.79297V7.56641H72.4745V8.86719H75.5214V9.59375H72.4745V11.0352C73.9921 11.0293 74.9413 10.9766 76.0605 10.7539L76.1542 11.5156C74.9355 11.75 73.9511 11.8086 72.2519 11.8086H71.5956V6.79297H75.6386ZM79.9745 6.04297V12.3594H79.0956V9.51172H77.6308V12.2891H76.7753V6.24219H77.6308V8.76172H79.0956V6.04297H79.9745ZM79.9745 12.8984V16.4492H79.0722V13.6484H72.955V12.8984H79.9745Z" fill="#B0B0B0"/>
<mask id="path-2-inside-1_3281_1241" fill="white">
<path d="M8.65839 5.87502L11.3828 8.59942C11.5287 8.74533 11.6371 8.92432 11.6989 9.12115C11.7608 9.31797 11.7741 9.52682 11.7379 9.72993C11.7017 9.93304 11.6169 10.1244 11.4909 10.2877C11.3648 10.451 11.2012 10.5815 11.0139 10.668L10.0426 11.1167C9.73264 11.2601 9.45922 11.4719 9.24283 11.7361C9.02643 12.0003 8.87267 12.31 8.79307 12.6421L8.3656 14.4384C8.13356 15.4134 6.92215 15.7559 6.2136 15.0474L4.60033 13.4341L1.6944 16.3393C1.64345 16.3903 1.58297 16.4307 1.51641 16.4582C1.44984 16.4858 1.3785 16.5 1.30645 16.5C1.2344 16.5 1.16306 16.4858 1.0965 16.4582C1.02993 16.4307 0.969451 16.3903 0.918505 16.3393C0.867559 16.2884 0.827147 16.2279 0.799575 16.1613C0.772003 16.0948 0.757812 16.0234 0.757812 15.9514C0.757813 15.8793 0.772003 15.808 0.799575 15.7414C0.827147 15.6748 0.867559 15.6144 0.918505 15.5634L3.82371 12.6575L2.21044 11.0442C1.50189 10.3357 1.84445 9.12425 2.81944 8.89221L4.6157 8.46474C4.94801 8.38565 5.258 8.23207 5.52226 8.01562C5.78652 7.79916 5.99814 7.52549 6.14113 7.21526L6.58983 6.24393C6.67633 6.05663 6.80678 5.89299 6.9701 5.76693C7.13342 5.64087 7.32477 5.55612 7.52788 5.5199C7.73099 5.48368 7.93984 5.49705 8.13667 5.55888C8.3335 5.6207 8.51248 5.72916 8.65839 5.87502ZM4.99047 12.2717L6.99022 14.2708C7.01325 14.2938 7.042 14.3102 7.07352 14.3184C7.10503 14.3266 7.13817 14.3263 7.1695 14.3174C7.20083 14.3085 7.22922 14.2915 7.25175 14.2679C7.27428 14.2444 7.29012 14.2153 7.29765 14.1836L7.72512 12.3874C7.84323 11.8937 8.07168 11.4331 8.39331 11.0404C8.71495 10.6476 9.1214 10.3329 9.58214 10.1197L10.5542 9.67103C10.581 9.65869 10.6044 9.64004 10.6224 9.61669C10.6405 9.59335 10.6526 9.56598 10.6578 9.53694C10.663 9.50789 10.661 9.47802 10.6522 9.44988C10.6433 9.42174 10.6278 9.39616 10.6069 9.37531L7.8825 6.65091C7.86166 6.63003 7.83607 6.6145 7.80793 6.60564C7.77979 6.59678 7.74992 6.59486 7.72088 6.60003C7.69183 6.60521 7.66447 6.61733 7.64112 6.63537C7.61777 6.6534 7.59913 6.67682 7.58678 6.70361L7.13808 7.67567C6.9254 8.13672 6.61078 8.54344 6.21795 8.86513C5.82512 9.18682 5.36436 9.41508 4.87043 9.53269L3.07417 9.96016C3.04248 9.96769 3.01338 9.98353 2.98987 10.0061C2.96635 10.0286 2.94928 10.057 2.9404 10.0883C2.93152 10.1196 2.93117 10.1528 2.93937 10.1843C2.94757 10.2158 2.96404 10.2446 2.98706 10.2676L4.98608 12.2673L4.99047 12.2717Z"/>
</mask>
<path d="M8.65839 5.87502L11.3828 8.59942C11.5287 8.74533 11.6371 8.92432 11.6989 9.12115C11.7608 9.31797 11.7741 9.52682 11.7379 9.72993C11.7017 9.93304 11.6169 10.1244 11.4909 10.2877C11.3648 10.451 11.2012 10.5815 11.0139 10.668L10.0426 11.1167C9.73264 11.2601 9.45922 11.4719 9.24283 11.7361C9.02643 12.0003 8.87267 12.31 8.79307 12.6421L8.3656 14.4384C8.13356 15.4134 6.92215 15.7559 6.2136 15.0474L4.60033 13.4341L1.6944 16.3393C1.64345 16.3903 1.58297 16.4307 1.51641 16.4582C1.44984 16.4858 1.3785 16.5 1.30645 16.5C1.2344 16.5 1.16306 16.4858 1.0965 16.4582C1.02993 16.4307 0.969451 16.3903 0.918505 16.3393C0.867559 16.2884 0.827147 16.2279 0.799575 16.1613C0.772003 16.0948 0.757812 16.0234 0.757812 15.9514C0.757813 15.8793 0.772003 15.808 0.799575 15.7414C0.827147 15.6748 0.867559 15.6144 0.918505 15.5634L3.82371 12.6575L2.21044 11.0442C1.50189 10.3357 1.84445 9.12425 2.81944 8.89221L4.6157 8.46474C4.94801 8.38565 5.258 8.23207 5.52226 8.01562C5.78652 7.79916 5.99814 7.52549 6.14113 7.21526L6.58983 6.24393C6.67633 6.05663 6.80678 5.89299 6.9701 5.76693C7.13342 5.64087 7.32477 5.55612 7.52788 5.5199C7.73099 5.48368 7.93984 5.49705 8.13667 5.55888C8.3335 5.6207 8.51248 5.72916 8.65839 5.87502ZM4.99047 12.2717L6.99022 14.2708C7.01325 14.2938 7.042 14.3102 7.07352 14.3184C7.10503 14.3266 7.13817 14.3263 7.1695 14.3174C7.20083 14.3085 7.22922 14.2915 7.25175 14.2679C7.27428 14.2444 7.29012 14.2153 7.29765 14.1836L7.72512 12.3874C7.84323 11.8937 8.07168 11.4331 8.39331 11.0404C8.71495 10.6476 9.1214 10.3329 9.58214 10.1197L10.5542 9.67103C10.581 9.65869 10.6044 9.64004 10.6224 9.61669C10.6405 9.59335 10.6526 9.56598 10.6578 9.53694C10.663 9.50789 10.661 9.47802 10.6522 9.44988C10.6433 9.42174 10.6278 9.39616 10.6069 9.37531L7.8825 6.65091C7.86166 6.63003 7.83607 6.6145 7.80793 6.60564C7.77979 6.59678 7.74992 6.59486 7.72088 6.60003C7.69183 6.60521 7.66447 6.61733 7.64112 6.63537C7.61777 6.6534 7.59913 6.67682 7.58678 6.70361L7.13808 7.67567C6.9254 8.13672 6.61078 8.54344 6.21795 8.86513C5.82512 9.18682 5.36436 9.41508 4.87043 9.53269L3.07417 9.96016C3.04248 9.96769 3.01338 9.98353 2.98987 10.0061C2.96635 10.0286 2.94928 10.057 2.9404 10.0883C2.93152 10.1196 2.93117 10.1528 2.93937 10.1843C2.94757 10.2158 2.96404 10.2446 2.98706 10.2676L4.98608 12.2673L4.99047 12.2717Z" fill="black"/>
<path d="M8.65839 5.87502L9.3655 5.16791L9.36537 5.16778L8.65839 5.87502ZM11.3828 8.59942L12.09 7.89244L12.0899 7.89232L11.3828 8.59942ZM11.0139 10.668L10.5946 9.7601L10.5945 9.76016L11.0139 10.668ZM10.0426 11.1167L9.62319 10.2089L9.62252 10.2092L10.0426 11.1167ZM8.79307 12.6421L7.82061 12.409L7.82024 12.4106L8.79307 12.6421ZM8.3656 14.4384L9.33843 14.6699L9.33843 14.6699L8.3656 14.4384ZM6.2136 15.0474L5.50649 15.7545L6.2136 15.0474ZM4.60033 13.4341L5.30744 12.727L4.60042 12.02L3.89331 12.7269L4.60033 13.4341ZM1.6944 16.3393L0.987379 15.6321L0.98729 15.6322L1.6944 16.3393ZM0.757812 15.9514H-0.242188H0.757812ZM0.918505 15.5634L1.62561 16.2705L1.6257 16.2704L0.918505 15.5634ZM3.82371 12.6575L4.5309 13.3645L5.23783 12.6574L4.53081 11.9504L3.82371 12.6575ZM2.21044 11.0442L2.91754 10.3371L2.91754 10.3371L2.21044 11.0442ZM2.81944 8.89221L2.58793 7.91938L2.58792 7.91938L2.81944 8.89221ZM4.6157 8.46474L4.84721 9.43757L4.84725 9.43756L4.6157 8.46474ZM6.14113 7.21526L5.23331 6.7959L5.23296 6.79666L6.14113 7.21526ZM6.58983 6.24393L7.49765 6.6633L7.49771 6.66317L6.58983 6.24393ZM4.99047 12.2717L4.28339 12.9789L4.28349 12.979L4.99047 12.2717ZM6.99022 14.2708L7.6973 13.5636L7.6972 13.5635L6.99022 14.2708ZM7.29765 14.1836L6.32482 13.9521L6.32473 13.9525L7.29765 14.1836ZM7.72512 12.3874L6.75256 12.1547L6.75229 12.1559L7.72512 12.3874ZM9.58214 10.1197L9.16304 9.21179L9.1623 9.21213L9.58214 10.1197ZM10.5542 9.67103L10.1357 8.76279L10.1351 8.76309L10.5542 9.67103ZM10.6069 9.37531L9.8998 10.0824L9.90045 10.0831L10.6069 9.37531ZM7.8825 6.65091L7.17474 7.35736L7.17539 7.35802L7.8825 6.65091ZM7.58678 6.70361L8.49472 7.12271L8.49502 7.12206L7.58678 6.70361ZM7.13808 7.67567L6.23014 7.25657L6.23004 7.2568L7.13808 7.67567ZM4.87043 9.53269L5.10194 10.5055L5.10205 10.5055L4.87043 9.53269ZM3.07417 9.96016L3.3053 10.9331L3.30568 10.933L3.07417 9.96016ZM2.98706 10.2676L3.6943 9.56061L3.6942 9.56051L2.98706 10.2676ZM4.98608 12.2673L4.27884 12.9743L4.279 12.9745L4.98608 12.2673ZM7.95128 6.58213L10.6757 9.30653L12.0899 7.89232L9.3655 5.16791L7.95128 6.58213ZM10.6756 9.3064C10.7076 9.3384 10.7313 9.37766 10.7449 9.42083L12.653 8.82146C12.5429 8.47097 12.3498 8.15226 12.09 7.89244L10.6756 9.3064ZM10.7449 9.42083C10.7585 9.464 10.7614 9.50981 10.7534 9.55436L12.7224 9.90551C12.7869 9.54384 12.7631 9.17195 12.653 8.82146L10.7449 9.42083ZM10.7534 9.55436C10.7455 9.5989 10.7269 9.64087 10.6993 9.6767L12.2825 10.8987C12.507 10.6079 12.6579 10.2672 12.7224 9.90551L10.7534 9.55436ZM10.6993 9.6767C10.6716 9.71252 10.6357 9.74113 10.5946 9.7601L11.4331 11.5759C11.7666 11.4218 12.058 11.1895 12.2825 10.8987L10.6993 9.6767ZM10.5945 9.76016L9.62319 10.2089L10.4619 12.0245L11.4332 11.5758L10.5945 9.76016ZM9.62252 10.2092C9.17558 10.416 8.78129 10.7214 8.46922 11.1024L10.0164 12.3697C10.1372 12.2223 10.2897 12.1042 10.4626 12.0242L9.62252 10.2092ZM8.46922 11.1024C8.15715 11.4834 7.9354 11.9301 7.82061 12.409L9.76553 12.8752C9.80994 12.6899 9.89572 12.5171 10.0164 12.3697L8.46922 11.1024ZM7.82024 12.4106L7.39277 14.2069L9.33843 14.6699L9.7659 12.8736L7.82024 12.4106ZM7.39277 14.2069C7.34198 14.4203 7.07636 14.4959 6.92071 14.3403L5.50649 15.7545C6.76794 17.0159 8.92515 16.4064 9.33843 14.6699L7.39277 14.2069ZM6.92071 14.3403L5.30744 12.727L3.89322 14.1412L5.50649 15.7545L6.92071 14.3403ZM3.89331 12.7269L0.987379 15.6321L2.40141 17.0465L5.30735 14.1413L3.89331 12.7269ZM0.98729 15.6322C1.0292 15.5903 1.07896 15.557 1.13372 15.5344L1.89909 17.3821C2.08698 17.3043 2.2577 17.1902 2.4015 17.0464L0.98729 15.6322ZM1.13372 15.5344C1.18848 15.5117 1.24717 15.5 1.30645 15.5V17.5C1.50983 17.5 1.7112 17.4599 1.89909 17.3821L1.13372 15.5344ZM1.30645 15.5C1.36573 15.5 1.42442 15.5117 1.47918 15.5344L0.713813 17.3821C0.901698 17.4599 1.10308 17.5 1.30645 17.5V15.5ZM1.47918 15.5344C1.53394 15.557 1.5837 15.5903 1.62561 15.6322L0.211398 17.0464C0.355202 17.1902 0.525923 17.3043 0.713813 17.3821L1.47918 15.5344ZM1.62561 15.6322C1.66752 15.6741 1.70077 15.7239 1.72345 15.7786L-0.124304 16.544C-0.0464779 16.7319 0.0675941 16.9026 0.211398 17.0464L1.62561 15.6322ZM1.72345 15.7786C1.74614 15.8334 1.75781 15.8921 1.75781 15.9514H-0.242188C-0.242188 16.1547 -0.202131 16.3561 -0.124304 16.544L1.72345 15.7786ZM1.75781 15.9514C1.75781 16.0106 1.74614 16.0693 1.72345 16.1241L-0.124304 15.3587C-0.202131 15.5466 -0.242188 15.748 -0.242188 15.9514H1.75781ZM1.72345 16.1241C1.70077 16.1789 1.66752 16.2286 1.62561 16.2705L0.211398 14.8563C0.0675941 15.0001 -0.0464779 15.1708 -0.124304 15.3587L1.72345 16.1241ZM1.6257 16.2704L4.5309 13.3645L3.11651 11.9505L0.211309 14.8564L1.6257 16.2704ZM4.53081 11.9504L2.91754 10.3371L1.50333 11.7513L3.1166 13.3646L4.53081 11.9504ZM2.91754 10.3371C2.76189 10.1814 2.83753 9.91584 3.05096 9.86504L2.58792 7.91938C0.851375 8.33266 0.241888 10.4899 1.50333 11.7513L2.91754 10.3371ZM3.05095 9.86504L4.84721 9.43757L4.38419 7.49191L2.58793 7.91938L3.05095 9.86504ZM4.84725 9.43756C5.32696 9.32339 5.77445 9.10169 6.15593 8.78923L4.8886 7.24201C4.74156 7.36245 4.56907 7.4479 4.38416 7.49192L4.84725 9.43756ZM6.15593 8.78923C6.5374 8.47676 6.84288 8.08169 7.0493 7.63387L5.23296 6.79666C5.1534 6.96928 5.03565 7.12156 4.8886 7.24201L6.15593 8.78923ZM7.04895 7.63462L7.49765 6.6633L5.68201 5.82457L5.23331 6.7959L7.04895 7.63462ZM7.49771 6.66317C7.51668 6.62209 7.54529 6.58619 7.58112 6.55855L6.35909 4.97531C6.06827 5.19978 5.83597 5.49117 5.68196 5.8247L7.49771 6.66317ZM7.58112 6.55855C7.61694 6.5309 7.65891 6.51231 7.70345 6.50436L7.35231 4.53543C6.99064 4.59993 6.64991 4.75084 6.35909 4.97531L7.58112 6.55855ZM7.70345 6.50436C7.748 6.49642 7.79381 6.49935 7.83698 6.51291L8.43635 4.60484C8.08587 4.49474 7.71397 4.47093 7.35231 4.53543L7.70345 6.50436ZM7.83698 6.51291C7.88015 6.52647 7.91941 6.55026 7.95141 6.58225L9.36537 5.16778C9.10555 4.90806 8.78684 4.71494 8.43635 4.60484L7.83698 6.51291ZM4.28349 12.979L6.28325 14.978L7.6972 13.5635L5.69745 11.5645L4.28349 12.979ZM6.28314 14.9779C6.432 15.1267 6.61789 15.2332 6.82163 15.2862L7.32541 13.3507C7.46612 13.3873 7.5945 13.4608 7.6973 13.5636L6.28314 14.9779ZM6.82163 15.2862C7.02537 15.3392 7.23956 15.3369 7.4421 15.2795L6.89689 13.3553C7.03678 13.3157 7.1847 13.3141 7.32541 13.3507L6.82163 15.2862ZM7.4421 15.2795C7.64464 15.2222 7.82821 15.1118 7.97385 14.9597L6.52966 13.5761C6.63024 13.4712 6.75701 13.3949 6.89689 13.3553L7.4421 15.2795ZM7.97385 14.9597C8.11947 14.8077 8.22191 14.6196 8.27057 14.4148L6.32473 13.9525C6.35834 13.811 6.42909 13.6811 6.52966 13.5761L7.97385 14.9597ZM8.27048 14.4152L8.69796 12.6189L6.75229 12.1559L6.32482 13.9521L8.27048 14.4152ZM8.69768 12.62C8.78064 12.2733 8.94109 11.9498 9.16699 11.674L7.61963 10.4068C7.20227 10.9165 6.90582 11.5141 6.75256 12.1547L8.69768 12.62ZM9.16699 11.674C9.39289 11.3981 9.67837 11.177 10.002 11.0273L9.1623 9.21213C8.56443 9.4887 8.037 9.89715 7.61963 10.4068L9.16699 11.674ZM10.0012 11.0277L10.9733 10.579L10.1351 8.76309L9.16304 9.21179L10.0012 11.0277ZM10.9727 10.5793C11.1459 10.4995 11.2972 10.3789 11.4138 10.228L9.83105 9.00539C9.91157 8.90115 10.0161 8.81791 10.1357 8.76279L10.9727 10.5793ZM11.4138 10.228C11.5304 10.0771 11.6088 9.90015 11.6423 9.71239L9.67329 9.36148C9.6964 9.23181 9.75052 9.10964 9.83105 9.00539L11.4138 10.228ZM11.6423 9.71239C11.6757 9.52463 11.6633 9.33155 11.606 9.14961L9.69832 9.75015C9.65876 9.6245 9.65018 9.49115 9.67329 9.36148L11.6423 9.71239ZM11.606 9.14961C11.5488 8.96769 11.4484 8.80231 11.3134 8.66755L9.90045 10.0831C9.80721 9.99001 9.73787 9.87579 9.69832 9.75015L11.606 9.14961ZM11.314 8.66821L8.5896 5.9438L7.17539 7.35802L9.8998 10.0824L11.314 8.66821ZM8.59026 5.94446C8.45551 5.80946 8.29012 5.70905 8.1082 5.65178L7.50766 7.55949C7.38202 7.51994 7.2678 7.4506 7.17474 7.35736L8.59026 5.94446ZM8.1082 5.65178C7.92627 5.59451 7.73319 5.58208 7.54542 5.61554L7.89633 7.58452C7.76665 7.60763 7.6333 7.59904 7.50766 7.55949L8.1082 5.65178ZM7.54542 5.61554C7.35765 5.64901 7.18075 5.72738 7.02981 5.84397L8.25242 7.42676C8.14818 7.50728 8.02601 7.56141 7.89633 7.58452L7.54542 5.61554ZM7.02981 5.84397C6.87888 5.96056 6.75836 6.11192 6.67854 6.28516L8.49502 7.12206C8.43989 7.24172 8.35666 7.34625 8.25242 7.42676L7.02981 5.84397ZM6.67884 6.28451L6.23014 7.25657L8.04602 8.09477L8.49472 7.12271L6.67884 6.28451ZM6.23004 7.2568C6.0808 7.58032 5.86002 7.86572 5.58437 8.09145L6.85153 9.63881C7.36153 9.22116 7.77001 8.69312 8.04612 8.09455L6.23004 7.2568ZM5.58437 8.09145C5.30872 8.31719 4.9854 8.47736 4.6388 8.55988L5.10205 10.5055C5.74332 10.3528 6.34153 10.0565 6.85153 9.63881L5.58437 8.09145ZM4.63891 8.55986L2.84265 8.98733L3.30568 10.933L5.10194 10.5055L4.63891 8.55986ZM2.84303 8.98724C2.63821 9.0359 2.45009 9.13833 2.29807 9.28397L3.68166 10.7282C3.57668 10.8287 3.44675 10.8995 3.3053 10.9331L2.84303 8.98724ZM2.29807 9.28397C2.14606 9.4296 2.03566 9.61317 1.97827 9.81571L3.90253 10.3609C3.86289 10.5008 3.78665 10.6276 3.68166 10.7282L2.29807 9.28397ZM1.97827 9.81571C1.92088 10.0183 1.91859 10.2325 1.97161 10.4362L3.90713 9.9324C3.94375 10.0731 3.94216 10.221 3.90253 10.3609L1.97827 9.81571ZM1.97161 10.4362C2.02464 10.6399 2.13107 10.8258 2.27993 10.9747L3.6942 9.56051C3.797 9.66332 3.8705 9.7917 3.90713 9.9324L1.97161 10.4362ZM2.27982 10.9746L4.27884 12.9743L5.69332 11.5604L3.6943 9.56061L2.27982 10.9746ZM4.279 12.9745L4.28339 12.9789L5.69755 11.5646L5.69316 11.5602L4.279 12.9745Z" fill="#B0B0B0" mask="url(#path-2-inside-1_3281_1241)"/>
</svg>
