<svg width="16" height="15" viewBox="0 0 16 15" fill="none" xmlns="http://www.w3.org/2000/svg">
<path d="M13.8014 5.93185V2.32876C13.8014 2.22218 13.7099 2.13623 13.5965 2.13623C13.4831 2.13623 13.3916 2.22218 13.3916 2.32876V5.9456C13.3971 6.00749 13.4282 6.55929 12.9726 6.94436C12.7696 7.11454 12.5464 7.1919 12.3597 7.22456C12.1933 7.25378 12.056 7.25034 11.9938 7.24519C11.9884 7.24519 11.981 7.24519 11.9755 7.24519H11.9499V11.8298C11.9499 12.2476 11.5877 12.5879 11.1431 12.5879C10.6986 12.5879 10.3363 12.2476 10.3363 11.8298V7.25034C10.2576 7.25894 10.1076 7.2641 9.9265 7.22972C9.74355 7.19534 9.53315 7.1197 9.33923 6.95983C8.9038 6.60399 8.89283 6.10891 8.89649 6.0092V2.32876C8.89649 2.22218 8.80501 2.13623 8.69158 2.13623C8.57815 2.13623 8.48668 2.22218 8.48668 2.32876V6.00405C8.48302 6.12954 8.49765 6.77933 9.07029 7.24863C9.35752 7.48413 9.67037 7.5804 9.9265 7.61822V11.8298C9.9265 12.459 10.4717 12.9713 11.1431 12.9713C11.8145 12.9713 12.3597 12.459 12.3597 11.8298V7.6165C12.6177 7.5804 12.9488 7.48241 13.2452 7.23144C13.8343 6.73464 13.8105 6.05046 13.8014 5.93185Z" fill="#424242" stroke="#424242" stroke-width="0.449589" stroke-miterlimit="10"/>
<path d="M7.353 4.88321C7.353 3.47189 6.28091 2.32874 4.95818 2.32874C3.63544 2.32874 2.56152 3.47189 2.56152 4.88321C2.56152 5.894 3.11403 6.76555 3.91353 7.17984C3.91353 7.19875 3.90987 7.21766 3.90987 7.23657V11.8298C3.90987 12.3541 4.36176 12.7804 4.92159 12.7804C5.47959 12.7804 5.9333 12.3558 5.9333 11.8298V7.23657C5.9333 7.23657 5.9333 7.22281 5.9333 7.21594C6.77122 6.81712 7.35483 5.92495 7.35483 4.88321H7.353Z" stroke="#424242" stroke-width="0.899179" stroke-linecap="round" stroke-linejoin="round"/>
<path d="M10.415 2.32874V6.07622" stroke="#424242" stroke-width="0.899179" stroke-linecap="round" stroke-linejoin="round"/>
<path d="M11.9541 2.32874V6.07622" stroke="#424242" stroke-width="0.899179" stroke-linecap="round" stroke-linejoin="round"/>
</svg>
