<svg width="13" height="14" viewBox="0 0 13 14" fill="none" xmlns="http://www.w3.org/2000/svg">
<path d="M11.8263 5.17579C12.1508 4.77379 12.3455 4.26183 12.3455 3.70481C12.3455 2.40689 11.2927 1.35413 9.99477 1.35413C9.2016 1.35413 8.50216 1.74711 8.07673 2.3492C7.58821 2.23022 7.07625 2.16713 6.54626 2.16713C6.01628 2.16713 5.50432 2.23203 5.01579 2.3492C4.59036 1.74711 3.89093 1.35413 3.09775 1.35413C1.79983 1.35413 0.747068 2.40689 0.747068 3.70481C0.747068 4.26183 0.941756 4.77199 1.26624 5.17579C0.918321 5.84278 0.723633 6.58368 0.723633 7.36784C0.723633 10.2413 3.3321 12.5703 6.54806 12.5703C9.76403 12.5703 12.3725 10.2413 12.3725 7.36784C12.3725 6.58368 12.1778 5.84278 11.8299 5.17579H11.8263Z" stroke="#F85C5C" stroke-width="1.2" stroke-linecap="round" stroke-linejoin="round"/>
<path d="M6.54395 2.16711V5.63545" stroke="#F85C5C" stroke-width="1.2" stroke-linecap="round" stroke-linejoin="round"/>
<path d="M5.1582 3.90125H7.93071" stroke="#F85C5C" stroke-width="1.2" stroke-linecap="round" stroke-linejoin="round"/>
<path d="M4.24405 8.73603C4.6841 8.73603 5.04083 8.31877 5.04083 7.80405C5.04083 7.28933 4.6841 6.87207 4.24405 6.87207C3.804 6.87207 3.44727 7.28933 3.44727 7.80405C3.44727 8.31877 3.804 8.73603 4.24405 8.73603Z" fill="#F85C5C"/>
<path d="M8.84463 8.73603C9.28468 8.73603 9.64141 8.31877 9.64141 7.80405C9.64141 7.28933 9.28468 6.87207 8.84463 6.87207C8.40458 6.87207 8.04785 7.28933 8.04785 7.80405C8.04785 8.31877 8.40458 8.73603 8.84463 8.73603Z" fill="#F85C5C"/>
</svg>
