<svg width="11" height="18" viewBox="0 0 11 18" fill="none" xmlns="http://www.w3.org/2000/svg">
<path d="M9.97275 16.9862L9.96854 16.9905L9.96849 16.9904C9.79464 17.1569 9.56343 17.25 9.32277 17.25C9.08211 17.25 8.8509 17.1569 8.67704 16.9904L1.03968 9.67904L1.03967 9.67903L1.21255 9.49844C1.14539 9.43415 1.09191 9.35681 1.05538 9.27113C1.01884 9.18545 1 9.09321 1 9C1 8.90679 1.01884 8.81455 1.05538 8.72887C1.09191 8.64319 1.14539 8.56586 1.21255 8.50156L9.97275 16.9862ZM9.97275 16.9862L9.97889 16.9801C10.0642 16.8979 10.1322 16.7994 10.1788 16.6905C10.2258 16.5805 10.25 16.462 10.25 16.3424C10.25 16.2227 10.2258 16.1043 10.1788 15.9943C10.1318 15.8843 10.063 15.785 9.97653 15.7025C9.97648 15.7024 9.97644 15.7024 9.9764 15.7023L2.97334 8.99866L9.9764 2.29765C10.0629 2.21506 10.1318 2.11572 10.1788 2.0057C10.2258 1.89569 10.25 1.77726 10.25 1.65761C10.25 1.53796 10.2258 1.41953 10.1788 1.30951C10.1322 1.20056 10.0643 1.10207 9.9789 1.01996L9.97276 1.01379L9.97281 1.01374L9.96849 1.0096C9.79464 0.843084 9.56343 0.75 9.32277 0.75C9.08213 0.75 8.85094 0.843067 8.67709 1.00956C8.67707 1.00957 8.67706 1.00959 8.67704 1.0096L1.03968 8.32096L9.97275 16.9862Z" fill="#FDFDFD" stroke="#FDFDFD" stroke-width="0.5"/>
</svg>
