<svg width="214" height="214" viewBox="0 0 214 214" fill="none" xmlns="http://www.w3.org/2000/svg">
<rect width="213.785" height="213.785" rx="20" fill="#FDFDFD"/>
<g filter="url(#filter0_d_3228_354)">
<path d="M120.541 98.5537C95.3603 121.133 70.1796 143.729 44.9988 166.308C43.0857 168.018 43.9851 171.208 46.5195 171.636C58.8319 173.774 71.1606 175.912 83.4731 178.05C84.2416 178.181 85.0428 178.017 85.6968 177.573C90.5204 174.333 95.344 171.11 100.168 167.87C101.705 166.85 103.781 167.393 104.599 169.054L109.995 179.924C110.436 180.812 111.27 181.437 112.251 181.585C122.323 183.213 132.412 184.825 142.484 186.453C145.051 186.864 146.932 184.069 145.591 181.832C141.16 174.399 136.729 166.982 132.298 159.549C131.382 158.003 131.954 156.013 133.557 155.207L168.123 137.825C170.772 136.493 170.183 132.529 167.256 132.036C155.483 130.063 143.711 128.089 131.921 126.116C131.071 125.968 130.221 126.198 129.534 126.724C127.621 128.221 125.724 129.701 123.811 131.197C121.506 132.99 118.252 130.852 118.955 128.023C121.146 119.209 123.337 110.411 125.528 101.596L120.525 98.5537H120.541Z" fill="#FEB1B1"/>
</g>
<path d="M151.323 61.7848C156.08 58.5379 159.202 53.0608 159.202 46.8623C159.202 36.892 151.16 28.824 141.221 28.824C135.173 28.824 129.844 31.8249 126.591 36.4165C121.278 34.0059 115.475 32.5301 109.345 32.1857C108.61 32.1365 107.874 32.1037 107.138 32.1037C107.057 32.1037 106.975 32.1037 106.893 32.1037C106.811 32.1037 106.73 32.1037 106.648 32.1037C105.912 32.1037 105.177 32.1201 104.441 32.1529C98.3275 32.5137 92.5081 33.9895 87.1955 36.4001C83.9425 31.8085 78.5971 28.8076 72.5652 28.8076C62.6265 28.8076 54.584 36.8756 54.584 46.8459C54.584 53.0444 57.7062 58.5215 62.463 61.7684C59.9947 67.6062 58.6216 74.018 58.6216 80.7741C58.6216 92.8761 63.0352 103.929 70.3094 112.439H69.7536C74.9845 119.196 79.5126 125.099 84.0242 130.855C87.1791 134.872 91.6417 140.481 91.3802 147.647C91.3802 147.827 91.3802 147.811 91.3802 147.942C91.3802 155.748 97.0198 162.225 104.441 163.504V163.553C105.16 163.668 105.896 163.75 106.648 163.75C106.73 163.75 106.811 163.75 106.893 163.75C106.975 163.75 107.057 163.75 107.138 163.75C107.89 163.75 108.626 163.668 109.345 163.553V163.504C116.766 162.209 122.406 155.748 122.406 147.942C122.406 147.811 122.406 147.827 122.406 147.647C122.161 140.481 126.607 134.872 129.762 130.855C134.29 125.099 138.802 119.196 144.033 112.439H143.477C150.751 103.929 155.165 92.8597 155.165 80.7741C155.165 74.0344 153.792 67.6062 151.323 61.7684V61.7848ZM107.302 97.6973C98.2785 97.6973 90.9552 90.3508 90.9552 81.2989C90.9552 72.247 98.2785 64.9005 107.302 64.9005C116.325 64.9005 123.648 72.247 123.648 81.2989C123.648 90.3508 116.325 97.6973 107.302 97.6973Z" fill="url(#paint0_linear_3228_354)"/>
<defs>
<filter id="filter0_d_3228_354" x="33.9707" y="88.5537" width="145.846" height="107.94" filterUnits="userSpaceOnUse" color-interpolation-filters="sRGB">
<feFlood flood-opacity="0" result="BackgroundImageFix"/>
<feColorMatrix in="SourceAlpha" type="matrix" values="0 0 0 0 0 0 0 0 0 0 0 0 0 0 0 0 0 0 127 0" result="hardAlpha"/>
<feOffset/>
<feGaussianBlur stdDeviation="5"/>
<feComposite in2="hardAlpha" operator="out"/>
<feColorMatrix type="matrix" values="0 0 0 0 0 0 0 0 0 0 0 0 0 0 0 0 0 0 0.25 0"/>
<feBlend mode="normal" in2="BackgroundImageFix" result="effect1_dropShadow_3228_354"/>
<feBlend mode="normal" in="SourceGraphic" in2="effect1_dropShadow_3228_354" result="shape"/>
</filter>
<linearGradient id="paint0_linear_3228_354" x1="62.4794" y1="111.833" x2="165.511" y2="52.5232" gradientUnits="userSpaceOnUse">
<stop stop-color="#FF5A76"/>
<stop offset="0.23" stop-color="#FF5B6A"/>
<stop offset="0.66" stop-color="#FF5D5A"/>
<stop offset="1" stop-color="#FF5E55"/>
</linearGradient>
</defs>
</svg>
