<svg width="49" height="67" viewBox="0 0 49 67" fill="none" xmlns="http://www.w3.org/2000/svg">
<g filter="url(#filter0_d_2575_5508)">
<path d="M39.0238 18.1757C40.1849 17.1644 40.9229 15.6651 40.9229 13.9894C40.9229 10.9438 38.4887 8.47433 35.4865 8.47433C33.8463 8.47433 32.3781 9.21124 31.3812 10.3754C29.4068 9.45035 27.2083 8.93294 24.8919 8.93294C22.5756 8.93294 20.4099 9.44447 18.4471 10.3558C17.4503 9.2034 15.9897 8.47433 14.3592 8.47433C11.357 8.47433 8.92285 10.9438 8.92285 13.9894C8.92285 15.6435 9.64152 17.1252 10.7775 18.1365C9.87914 20.1277 9.37492 22.3404 9.37492 24.6746C9.37492 25.0215 9.39037 25.3644 9.41162 25.7074H9.37492L9.41935 25.8172C9.51015 27.1087 9.7555 28.3571 10.1361 29.5448C10.5514 30.8422 11.388 32.126 12.9547 34.7286C13.1363 35.0285 13.2252 35.1794 13.4222 35.4989C14.4326 37.1412 16.8475 42.6818 22.1622 56.6399C22.6703 57.8668 23.7811 58.4802 24.8919 58.4802C26.0028 58.4802 27.1136 57.8668 27.6217 56.6399C32.9364 42.6818 35.3512 37.1412 36.3616 35.4989C36.5587 35.1794 36.6476 35.0305 36.8292 34.7286C38.3959 32.126 39.2324 30.8442 39.6478 29.5448C40.0284 28.3591 40.2718 27.1107 40.3645 25.8172L40.409 25.7074H40.3723C40.3935 25.3664 40.409 25.0215 40.409 24.6746C40.409 22.356 39.9105 20.1571 39.0238 18.1757Z" fill="url(#paint0_linear_2575_5508)"/>
<path d="M24.8923 35.3675C30.9932 35.3675 35.9389 30.3502 35.9389 24.1611C35.9389 17.9719 30.9932 12.9546 24.8923 12.9546C18.7914 12.9546 13.8457 17.9719 13.8457 24.1611C13.8457 30.3502 18.7914 35.3675 24.8923 35.3675Z" fill="white" fill-opacity="0.8"/>
</g>
<path d="M23.1739 17.711C23.374 17.7109 23.5717 17.7546 23.7532 17.8389C23.9348 17.9231 24.0957 18.046 24.2248 18.1989C24.354 18.3518 24.4482 18.5311 24.5009 18.7241C24.5536 18.9172 24.5635 19.1194 24.53 19.3167L25.8868 19.5437C25.9392 19.2338 25.938 18.9172 25.8834 18.6077C26.1436 18.4447 26.4509 18.3735 26.7563 18.4055C27.0617 18.4374 27.3477 18.5706 27.5686 18.7838C27.7895 18.9971 27.9327 19.2781 27.9754 19.5822C28.0181 19.8863 27.9578 20.1959 27.8041 20.4618H20.423C20.3163 20.4616 20.2111 20.4367 20.1156 20.3889C20.0202 20.341 19.9372 20.2716 19.8733 20.1862C19.8093 20.1007 19.7661 20.0016 19.7471 19.8965C19.7281 19.7915 19.7338 19.6835 19.7637 19.581C19.7937 19.4786 19.8471 19.3845 19.9197 19.3063C19.9923 19.228 20.0821 19.1678 20.1821 19.1302C20.282 19.0927 20.3893 19.079 20.4955 19.0901C20.6016 19.1012 20.7037 19.1369 20.7937 19.1943C20.8864 19.2537 20.9919 19.2899 21.1014 19.3C21.2109 19.3101 21.3213 19.2938 21.4232 19.2525C21.5252 19.2111 21.6157 19.1459 21.6872 19.0623C21.7587 18.9787 21.8091 18.8792 21.8342 18.7721C21.9051 18.47 22.076 18.2008 22.3192 18.0082C22.5624 17.8156 22.8636 17.7108 23.1739 17.711ZM24.2164 16.5398C23.5949 16.2852 22.9017 16.2667 22.2676 16.4879C21.6334 16.7091 21.1021 17.1546 20.7738 17.7405C20.3323 17.6642 19.8779 17.7337 19.4794 17.9385C19.0809 18.1433 18.76 18.4723 18.565 18.8757C18.37 19.2791 18.3116 19.735 18.3987 20.1745C18.4858 20.614 18.7136 21.0132 19.0476 21.3118V29.4019C19.0476 29.7666 19.1926 30.1165 19.4505 30.3744C19.7084 30.6324 20.0583 30.7773 20.423 30.7773H27.3001C27.6648 30.7773 28.0147 30.6324 28.2726 30.3744C28.5305 30.1165 28.6755 29.7666 28.6755 29.4019H30.0509C30.4156 29.4019 30.7655 29.257 31.0234 28.999C31.2813 28.7411 31.4263 28.3912 31.4263 28.0265V23.2126C31.4263 22.8478 31.2813 22.4979 31.0234 22.24C30.7655 21.9821 30.4156 21.8372 30.0509 21.8372H28.6755V21.5937C29.103 21.1097 29.3465 20.4907 29.3635 19.8451C29.3805 19.1995 29.1698 18.5685 28.7684 18.0627C28.3669 17.5568 27.8002 17.2083 27.1677 17.0783C26.5351 16.9482 25.8769 17.0449 25.3085 17.3513C25.0181 16.9936 24.6426 16.7146 24.2164 16.5398ZM28.6755 23.2126H30.0509V28.0265H28.6755V23.2126ZM27.3001 21.8372V29.4019H20.423V21.8372H27.3001ZM21.7984 23.2126V28.0265H23.1739V23.2126H21.7984ZM25.9247 23.2126V28.0265H24.5493V23.2126H25.9247Z" fill="#FF6856"/>
<defs>
<filter id="filter0_d_2575_5508" x="0.922852" y="0.474335" width="48" height="66.0059" filterUnits="userSpaceOnUse" color-interpolation-filters="sRGB">
<feFlood flood-opacity="0" result="BackgroundImageFix"/>
<feColorMatrix in="SourceAlpha" type="matrix" values="0 0 0 0 0 0 0 0 0 0 0 0 0 0 0 0 0 0 127 0" result="hardAlpha"/>
<feOffset/>
<feGaussianBlur stdDeviation="4"/>
<feComposite in2="hardAlpha" operator="out"/>
<feColorMatrix type="matrix" values="0 0 0 0 0 0 0 0 0 0 0 0 0 0 0 0 0 0 0.15 0"/>
<feBlend mode="normal" in2="BackgroundImageFix" result="effect1_dropShadow_2575_5508"/>
<feBlend mode="normal" in="SourceGraphic" in2="effect1_dropShadow_2575_5508" result="shape"/>
</filter>
<linearGradient id="paint0_linear_2575_5508" x1="24.9229" y1="58.4743" x2="24.9229" y2="8.47433" gradientUnits="userSpaceOnUse">
<stop stop-color="#FF6755" stop-opacity="0.5"/>
<stop offset="0.34" stop-color="#FF6755"/>
</linearGradient>
</defs>
</svg>
